<?xml version="1.0" standalone="no"?>
<!DOCTYPE svg PUBLIC "-//W3C//DTD SVG 20010904//EN"
 "http://www.w3.org/TR/2001/REC-SVG-20010904/DTD/svg10.dtd">
<svg version="1.0" xmlns="http://www.w3.org/2000/svg"
 width="880.000000pt" height="1024.000000pt" viewBox="0 0 880.000000 1024.000000"
 preserveAspectRatio="xMidYMid meet">
<metadata>
Created by potrace 1.16, written by Peter Selinger 2001-2019
</metadata>
<g transform="translate(0.000000,1024.000000) scale(0.100000,-0.100000)"
fill="#000000" stroke="none">
<path d="M4607 9713 c9 -207 -39 -512 -125 -787 l-27 -88 -44 83 c-56 107
-190 309 -277 419 -94 118 -259 279 -368 359 -105 78 -186 127 -186 113 0 -5
9 -30 20 -54 46 -104 89 -361 90 -529 1 -497 -187 -1036 -555 -1594 -141 -213
-175 -254 -305 -365 -134 -114 -238 -221 -344 -353 l-70 -87 -138 137 c-76 76
-195 192 -263 258 -69 67 -125 125 -125 131 0 5 15 39 34 74 73 137 104 344
72 470 -27 104 -79 201 -144 267 -105 106 -216 147 -392 145 -309 -2 -510
-188 -561 -518 l-12 -80 -87 -27 c-167 -53 -314 -167 -367 -285 -54 -118 -40
-334 30 -474 59 -119 185 -214 316 -238 147 -27 494 46 612 130 l30 22 257
-250 c141 -138 302 -296 357 -351 l99 -100 -22 -93 c-42 -180 -47 -228 -47
-458 1 -269 17 -376 95 -613 143 -435 439 -854 858 -1218 l64 -55 -512 -479
c-281 -264 -515 -482 -521 -483 -5 -2 -29 14 -53 35 -100 88 -212 126 -371
126 -196 0 -324 -51 -450 -177 -135 -135 -193 -283 -183 -472 7 -120 42 -197
133 -290 118 -120 270 -161 407 -109 13 5 16 -7 20 -77 4 -72 9 -93 41 -154
86 -162 249 -262 457 -279 248 -20 439 112 538 373 22 56 26 83 25 167 0 122
-20 204 -75 305 l-40 75 39 33 c21 19 94 81 163 139 l125 105 7 -78 c44 -465
132 -890 278 -1342 27 -84 53 -160 58 -169 7 -12 63 45 278 288 321 362 351
395 357 389 2 -3 120 -160 261 -350 142 -190 263 -346 270 -348 7 -2 26 14 42
35 15 21 100 128 187 238 87 110 191 241 230 292 40 50 77 92 82 92 6 0 55
-57 111 -127 234 -294 436 -542 443 -542 4 0 19 33 35 73 144 368 258 876 312
1381 8 77 16 142 19 144 5 5 7 3 226 -185 l157 -135 -38 -71 c-49 -91 -70
-177 -70 -296 0 -170 48 -289 165 -407 75 -76 140 -113 240 -139 67 -17 218
-20 284 -4 111 25 212 101 265 199 34 63 66 188 66 261 0 66 -5 63 105 74 219
22 366 152 410 362 19 88 19 241 0 321 -42 178 -170 303 -357 347 -80 19 -141
19 -245 0 -91 -16 -242 -64 -316 -102 l-48 -24 -287 278 c-158 153 -387 375
-508 493 l-222 215 101 80 c552 436 871 1000 928 1637 13 150 6 369 -15 493
l-14 80 31 29 c54 49 183 162 451 396 174 151 266 225 280 224 11 -1 73 -15
136 -32 290 -78 425 -80 577 -6 113 54 219 184 270 329 24 70 27 95 28 200 0
117 -1 123 -33 188 -36 73 -115 148 -210 200 -57 31 -195 72 -275 82 -56 7
-57 8 -49 34 4 14 7 76 6 136 0 91 -5 122 -26 183 -46 128 -140 224 -268 273
-77 30 -232 37 -320 15 -175 -45 -336 -164 -421 -311 -108 -187 -88 -438 52
-664 10 -14 0 -28 -57 -83 -38 -36 -96 -90 -130 -119 -33 -30 -122 -111 -198
-182 l-137 -128 -46 63 c-25 35 -88 110 -138 168 -85 96 -130 142 -270 271
l-50 46 6 104 c11 168 10 625 -1 765 -6 71 -19 197 -30 280 -11 84 -20 157
-20 163 0 13 -10 15 233 -44 103 -26 192 -45 198 -43 6 2 -96 57 -225 122
l-235 119 -32 136 c-40 172 -116 401 -185 556 -62 141 -167 338 -183 343 -7 2
-11 -13 -11 -43 0 -59 -35 -294 -61 -405 -33 -140 -119 -429 -137 -457 -5 -8
-58 91 -142 265 -188 385 -354 672 -390 672 -6 0 -7 -54 -3 -127z m-3063
-1513 c139 -20 250 -98 297 -206 41 -98 45 -299 8 -451 -12 -50 -55 -148 -86
-197 l-18 -28 309 -304 310 -304 -76 -147 c-41 -82 -86 -178 -99 -215 l-23
-66 -358 350 -358 351 -93 -46 c-223 -111 -490 -159 -603 -108 -120 55 -224
221 -224 360 0 199 176 384 389 410 l55 6 12 71 c51 306 199 498 403 524 81
11 79 11 155 0z m5964 -100 c64 -28 133 -101 158 -168 14 -37 18 -88 22 -243
l4 -196 126 -6 c145 -6 218 -26 294 -82 97 -71 138 -164 138 -314 0 -152 -31
-234 -122 -317 -72 -66 -141 -88 -278 -88 -131 0 -248 27 -395 90 l-84 36
-258 -228 c-142 -126 -313 -277 -381 -337 -68 -60 -124 -108 -126 -106 -2 2
-22 59 -44 125 -22 67 -64 173 -92 235 -28 63 -54 121 -56 129 -3 10 99 108
301 290 169 151 314 280 322 287 13 10 9 19 -27 64 -56 71 -87 135 -111 227
-36 140 -20 306 37 398 61 98 170 181 289 221 64 21 218 12 283 -17z m-3218
-1785 l0 -1385 -144 0 c-264 0 -488 56 -773 195 -221 107 -388 209 -598 368
-55 42 -101 72 -103 67 -7 -19 52 -274 89 -385 143 -428 368 -659 674 -690
110 -12 284 39 433 127 31 18 99 75 150 126 l92 92 90 0 90 0 0 -183 0 -182
-50 -24 c-114 -54 -301 -234 -380 -367 -30 -49 -35 -67 -35 -118 0 -58 1 -61
41 -91 53 -40 150 -72 266 -85 51 -7 108 -14 126 -16 l32 -5 0 -139 0 -140
-43 0 c-208 0 -569 95 -812 215 -924 454 -1406 1468 -1161 2439 185 728 764
1298 1519 1496 144 38 318 65 440 68 l57 2 0 -1385z m347 1370 c538 -70 997
-306 1360 -698 573 -618 704 -1529 329 -2292 -257 -523 -717 -925 -1266 -1105
-210 -70 -425 -110 -582 -110 l-68 0 0 139 0 138 83 7 c329 28 624 126 886
296 660 428 982 1216 800 1960 -84 340 -243 616 -501 866 -106 102 -160 146
-278 224 -240 157 -568 274 -830 295 -41 3 -94 8 -117 11 l-43 5 0 140 0 139
54 0 c30 0 108 -7 173 -15z m115 -1320 c67 -45 87 -152 40 -214 -69 -93 -197
-93 -260 0 -20 29 -23 44 -20 96 4 66 18 91 73 124 45 28 121 25 167 -6z m465
3 c37 -26 73 -90 73 -131 0 -134 -167 -205 -264 -114 -67 63 -68 162 -4 224
40 38 50 41 112 42 36 1 59 -5 83 -21z m461 2 c136 -83 67 -300 -91 -287 -149
13 -200 201 -77 285 43 29 121 30 168 2z m-2842 -1031 c30 -34 171 -141 269
-205 135 -88 320 -178 458 -223 109 -35 175 -50 352 -78 l49 -8 -66 -55 c-124
-103 -239 -160 -367 -182 -137 -23 -263 25 -397 154 -129 124 -239 301 -297
478 -45 135 -45 168 -1 119z m2895 -118 c-102 -303 -320 -568 -515 -626 -156
-47 -344 7 -523 150 -46 36 -83 70 -83 75 0 6 18 10 39 10 64 0 247 39 361 76
206 69 473 221 665 378 96 79 101 73 56 -63z m-1286 -865 c153 -72 335 -270
335 -365 0 -63 -105 -111 -294 -132 -58 -6 -112 -9 -120 -6 -14 6 -16 40 -16
267 l0 260 23 0 c12 0 45 -11 72 -24z m-1129 -785 c43 -22 139 -59 212 -83
l133 -43 -5 -40 c-4 -22 -17 -98 -29 -170 l-24 -130 -28 2 c-40 3 -295 133
-385 196 -56 40 -74 58 -72 73 10 56 94 234 111 234 4 0 43 -18 87 -39z m2195
-123 c67 -167 74 -147 -86 -224 -153 -74 -366 -156 -377 -146 -7 8 -72 362
-66 366 1 1 49 15 106 31 56 16 160 49 230 75 l127 47 13 -24 c8 -14 31 -70
53 -125z m634 -406 l485 -459 113 56 c127 64 218 91 328 98 324 23 529 -272
409 -589 -44 -117 -143 -205 -259 -229 -53 -11 -199 -7 -234 7 -13 5 -16 -16
-19 -138 -3 -130 -6 -148 -30 -200 -72 -155 -217 -229 -388 -198 -226 41 -376
241 -356 476 7 92 46 213 91 288 19 32 35 61 35 65 0 4 -121 118 -269 254
l-269 246 -7 83 c-20 238 -76 572 -114 671 -6 15 -8 27 -6 27 3 0 224 -206
490 -458z m-3151 366 c-39 -113 -90 -329 -113 -483 -12 -77 -25 -152 -29 -166
-5 -18 -88 -98 -252 -244 -135 -120 -249 -221 -253 -225 -5 -4 8 -29 28 -55
80 -106 115 -207 115 -337 0 -242 -148 -419 -365 -435 -164 -13 -312 49 -382
160 -46 73 -65 144 -70 270 -3 64 -8 117 -11 117 -2 0 -36 -11 -74 -25 -155
-56 -330 -13 -408 99 -85 125 -81 334 10 476 60 93 172 177 290 216 152 50
352 -1 510 -131 30 -25 60 -44 66 -43 6 2 150 131 320 288 502 465 638 590
641 590 1 0 -9 -33 -23 -72z m1902 -184 c17 -102 28 -186 25 -189 -32 -19
-385 -75 -476 -75 l-35 0 0 199 0 200 43 5 c23 3 94 10 157 16 63 7 144 17
180 24 36 7 67 11 70 9 3 -3 19 -88 36 -189z m-1006 171 c47 -8 156 -20 243
-27 l157 -12 0 -198 0 -198 -49 0 c-81 0 -268 28 -394 59 -65 15 -120 31 -123
34 -5 5 41 312 51 345 5 15 12 15 115 -3z m-733 -242 c92 -54 251 -130 343
-163 36 -13 68 -26 72 -30 5 -3 -4 -90 -19 -193 l-27 -188 -30 7 c-79 17 -472
170 -499 194 -16 14 59 420 78 420 2 0 39 -21 82 -47z m2457 -20 c12 -39 45
-252 48 -312 3 -64 3 -65 -30 -84 -84 -49 -442 -177 -495 -177 -10 0 -18 12
-22 33 -5 31 -44 295 -48 330 -2 14 29 28 162 73 90 30 209 77 265 104 56 26
104 49 108 49 4 1 9 -7 12 -16z m-1821 -233 c104 -25 259 -47 395 -56 l102 -7
0 -190 0 -190 -107 7 c-141 9 -228 21 -395 52 -127 24 -138 28 -138 48 0 28
39 315 46 339 6 21 -4 21 97 -3z m1176 -157 c31 -232 31 -215 -4 -224 -63 -17
-315 -49 -432 -55 l-123 -7 0 191 0 190 78 7 c120 10 301 34 367 49 33 7 67
14 76 15 14 1 20 -27 38 -166z m-1939 -133 c221 -111 565 -214 875 -261 172
-27 514 -36 706 -20 333 28 669 110 958 232 l113 48 -7 -77 c-23 -261 -82
-620 -146 -881 -46 -191 -127 -443 -141 -439 -5 2 -123 140 -261 308 -139 167
-257 305 -264 307 -6 2 -125 -145 -263 -326 -139 -182 -256 -333 -260 -336 -5
-3 -124 157 -266 355 -141 199 -260 359 -265 358 -4 -2 -133 -151 -285 -332
l-278 -329 -19 44 c-52 123 -142 470 -191 739 -41 226 -88 640 -72 640 4 0 33
-13 66 -30z"/>
</g>
</svg>
